<mxfile host="app.diagrams.net" modified="2023-09-03T20:04:08.673Z" agent="Mozilla/5.0 (Windows NT 10.0; Win64; x64) AppleWebKit/537.36 (KHTML, like Gecko) Chrome/116.0.0.0 Safari/537.36" etag="QSslqAw8LwEZE-TgEQ4E" version="21.6.7" type="github">
  <diagram name="Page-1" id="Xs_UFXnfOlLmO5uw-S0n">
    <mxGraphModel dx="1013" dy="550" grid="1" gridSize="10" guides="1" tooltips="1" connect="1" arrows="1" fold="1" page="1" pageScale="1" pageWidth="827" pageHeight="1169" math="0" shadow="0">
      <root>
        <mxCell id="0" />
        <mxCell id="1" parent="0" />
        <mxCell id="0rtRrYD6AR9V3r3JzhEk-7" style="edgeStyle=orthogonalEdgeStyle;rounded=0;orthogonalLoop=1;jettySize=auto;html=1;entryX=0;entryY=0.5;entryDx=0;entryDy=0;" edge="1" parent="1" source="0rtRrYD6AR9V3r3JzhEk-4" target="0rtRrYD6AR9V3r3JzhEk-3">
          <mxGeometry relative="1" as="geometry">
            <mxPoint x="530" y="320" as="targetPoint" />
          </mxGeometry>
        </mxCell>
        <mxCell id="0rtRrYD6AR9V3r3JzhEk-4" value="" style="rounded=0;whiteSpace=wrap;html=1;" vertex="1" parent="1">
          <mxGeometry x="120" y="90" width="420" height="460" as="geometry" />
        </mxCell>
        <mxCell id="0rtRrYD6AR9V3r3JzhEk-21" style="edgeStyle=orthogonalEdgeStyle;rounded=0;orthogonalLoop=1;jettySize=auto;html=1;entryX=0.5;entryY=0;entryDx=0;entryDy=0;" edge="1" parent="1" source="0rtRrYD6AR9V3r3JzhEk-1" target="0rtRrYD6AR9V3r3JzhEk-2">
          <mxGeometry relative="1" as="geometry" />
        </mxCell>
        <mxCell id="0rtRrYD6AR9V3r3JzhEk-24" style="edgeStyle=orthogonalEdgeStyle;rounded=0;orthogonalLoop=1;jettySize=auto;html=1;" edge="1" parent="1" source="0rtRrYD6AR9V3r3JzhEk-1" target="0rtRrYD6AR9V3r3JzhEk-23">
          <mxGeometry relative="1" as="geometry" />
        </mxCell>
        <mxCell id="0rtRrYD6AR9V3r3JzhEk-1" value="Process Automation" style="shape=image;verticalLabelPosition=bottom;verticalAlign=top;imageAspect=0;aspect=fixed;image=data:image/svg+xml,PHN2ZyB4bWxucz0iaHR0cDovL3d3dy53My5vcmcvMjAwMC9zdmciIGlkPSJoY2lwcm9jZXNzZXMiIHZpZXdCb3g9IjMuOTk5Mjg0NTA1ODQ0MTE2IDUgNDguMDAwNzE3MTYzMDg1OTQgNDUuMDAwMDAzODE0Njk3MjY2IiB3aWR0aD0iNDguMDAwNzE3MTYzMDg1OTQiIGhlaWdodD0iNDUuMDAwMDAzODE0Njk3MjY2Ij48ZGVmcz48c3R5bGU+LmNscy0xe2ZpbGw6IzBhNmVkMTt9LmNscy0ye2ZpbGw6IzA1M2I3MDt9PC9zdHlsZT48L2RlZnM+PHRpdGxlPmhjaXByb2Nlc3NlczwvdGl0bGU+PHBhdGggY2xhc3M9ImNscy0xIiBkPSJNNDksMzJINDZhMywzLDAsMCwwLTMsMi45OTFsLTMtMS4xNjVWMzJhMi45MTcsMi45MTcsMCwwLDAtLjU1OS0xLjY0N2wzLjMzMy00LjRjLjA3OS4wMDYuMTQ3LjA0Ni4yMjguMDQ2aDNhMywzLDAsMCwwLDMtM1YyMGEzLDMsMCwwLDAtMy0zSDQzYTMsMywwLDAsMC0zLDN2M2EyLjk0NSwyLjk0NSwwLDAsMCwxLjMwNiwyLjQxbC0yLjk4LDMuOTM1QTIuOTM5LDIuOTM5LDAsMCwwLDM3LDI5SDM0YTIuOTIsMi45MiwwLDAsMC0xLjQ4OS40NTJsLTEuOTY1LTEuOTY1QTIuOTIsMi45MiwwLDAsMCwzMSwyNlYyM2EzLDMsMCwwLDAtMy0zSDI1YTMsMywwLDAsMC0zLDN2M2EzLDMsMCwwLDAsMywzaDNhMi45MiwyLjkyLDAsMCwwLDEuNDg5LS40NTJsMS45NjUsMS45NjVBMi45MiwyLjkyLDAsMCwwLDMxLDMydjIuODUxbC0zLjQ0MSwxLjY3NkEyLjk2MywyLjk2MywwLDAsMCwyNSwzNUgyMmEzLDMsMCwwLDAtMywzdjNhMywzLDAsMCwwLDMsM2gzYTMsMywwLDAsMCwzLTNWMzhjMC0uMDA2LDAtLjAxMSwwLS4wMThsMy4zNjItMS42MzdBMi45NzYsMi45NzYsMCwwLDAsMzQsMzhIMzUuOGwxLjE4LDMuMDA1QTMsMywwLDAsMCwzNCw0NHYzYTMsMywwLDAsMCwzLDNoM2EzLDMsMCwwLDAsMy0zVjQ0YTMsMywwLDAsMC0zLTNIMzguNTg2TDM3LjM4LDM3LjkyOEEyLjk1LDIuOTUsMCwwLDAsMzkuOTE4LDM1LjRMNDMsMzYuNlYzOGEzLDMsMCwwLDAsMywzaDNhMywzLDAsMCwwLDMtM1YzNUEzLDMsMCwwLDAsNDksMzJaTTQzLDIwaDNsMCwwLDAsMy0zLDBaTTI4LDI2bC0zLDAsMC0zaDNsMCwwWk0yNSw0MWwtMywwLDAtM2gzbDAsMFptOS02LDAtM2gzbDAsMCwwLDNabTYsOSwwLDAsMCwzLTMsMCwwLTNabTktNi0zLDAsMC0zaDNsMCwwWiIvPjxwYXRoIGNsYXNzPSJjbHMtMiIgZD0iTTE5LDI4Ljk4NkgxMi40MWE1LjM4Nyw1LjM4NywwLDAsMS0xLjY3NS0xMC41MTVsMi4zMDgtLjc1OUwxMi43ODEsMTUuM2E4LjEsOC4xLDAsMCwxLDEuNS01LjI4NEE2LjUsNi41LDAsMCwxLDE5LjEwOSw4YTYuMDU0LDYuMDU0LDAsMCwxLDUuODY0LDQuMDMzbDEuMzA3LDMuMjlMMjkuMzEsMTMuNWEzLjkyMiwzLjkyMiwwLDAsMSwyLjA0My0uNTkxLDMuOTg4LDMuOTg4LDAsMCwxLDMuOTE0LDMuMjQ5bC4xNTkuODQ1aDNjLS4wNDctLjQzOS0uMTA4LS45MDUtLjIxLTEuNGE2Ljk0MSw2Ljk0MSwwLDAsMC0xMC40NTMtNC42NzJBOS40NTIsOS40NTIsMCwwLDAsMTkuMDU1LDVDOC43LDUsOS44LDE1LjYyMSw5LjgsMTUuNjIxQTguMzg3LDguMzg3LDAsMCwwLDEyLjQxLDMxLjk4NkgxOVoiLz48L3N2Zz4=" vertex="1" parent="1">
          <mxGeometry x="270" y="297.5" width="48" height="45" as="geometry" />
        </mxCell>
        <mxCell id="0rtRrYD6AR9V3r3JzhEk-2" value="Process Visiblity" style="shape=image;verticalLabelPosition=bottom;verticalAlign=top;imageAspect=0;aspect=fixed;image=data:image/svg+xml,PHN2ZyB4bWxucz0iaHR0cDovL3d3dy53My5vcmcvMjAwMC9zdmciIGlkPSJwcm9jZXNzLXZpc2liaWxpdHkiIHZpZXdCb3g9IjMuODg5ODE0ODUzNjY4MjEzIDMuODkzMDc0MDM1NjQ0NTMxMiA0OC4xMTAxNTMxOTgyNDIxOSA0OC4xMDc1MzI1MDEyMjA3IiB3aWR0aD0iNDguMTEwMTUzMTk4MjQyMTkiIGhlaWdodD0iNDguMTA3NTMyNTAxMjIwNyI+PGRlZnM+PHN0eWxlPi5jbHMtMXtmaWxsOiMwNTNiNzA7fS5jbHMtMntmaWxsOiMwYTZlZDE7fTwvc3R5bGU+PC9kZWZzPjx0aXRsZT5wcm9jZXNzLXZpc2liaWxpdHk8L3RpdGxlPjxwYXRoIGNsYXNzPSJjbHMtMSIgZD0iTTUxLjA2Miw0Ni45MzgsMzkuMjE4LDM1LjAwN0ExOS41NTUsMTkuNTU1LDAsMSwwLDM1LDM5LjIyNEw0Ni44NDQsNTEuMTU2QTMuMTIyLDMuMTIyLDAsMCwwLDQ5LDUyYTIuOCwyLjgsMCwwLDAsMi4wNjItLjg0NCwyLjg0LDIuODQsMCwwLDAsMC00LjIxOFpNNywyMy41QTE2LjUsMTYuNSwwLDEsMSwyMy41LDQwLDE2LjUxOSwxNi41MTksMCwwLDEsNywyMy41WiIvPjxwYXRoIGNsYXNzPSJjbHMtMiIgZD0iTTI2LjM1MSwxOC45MTFoNi4zMTNhMS4zNDMsMS4zNDMsMCwwLDAsMS4zNDMtMS4zNDNWMTQuMjU0YTEuMzQzLDEuMzQzLDAsMCwwLTEuMzQzLTEuMzQzSDI2LjM1MWExLjM0NCwxLjM0NCwwLDAsMC0xLjM0NCwxLjM0M3YuOTA4aC0zLjU5YS43NTIuNzUyLDAsMCwwLS43NS43NXY1LjI1MWwtMi4wNzYsMi4wNzZIMTcuNTA3di0uOUExLjM0MSwxLjM0MSwwLDAsMCwxNi4xNjYsMjFoLTYuM2ExLjM0MSwxLjM0MSwwLDAsMC0xLjM0MSwxLjM0MXYzLjMwOGExLjM0MSwxLjM0MSwwLDAsMCwxLjM0MSwxLjM0MWg2LjNhMS4zNDEsMS4zNDEsMCwwLDAsMS4zNDEtMS4zNDF2LS45aDEuMUwyMC42NjcsMjYuOHY0Ljc3NWEuNzUyLjc1MiwwLDAsMCwuNzUuNzVoMy41OXYuOTA4YTEuMzQzLDEuMzQzLDAsMCwwLDEuMzQ0LDEuMzQzaDYuMzEzYTEuMzQzLDEuMzQzLDAsMCwwLDEuMzQzLTEuMzQzVjI5LjkxNWExLjM0MywxLjM0MywwLDAsMC0xLjM0My0xLjM0M0gyNi4zNTFhMS4zNDQsMS4zNDQsMCwwLDAtMS4zNDQsMS4zNDN2LjkwNmgtMi44NFYyNi44OHMuMDEzLS4wMDYuMDE4LS4wMTJMMjQuMzQ5LDI0LjdhMS4wMjEsMS4wMjEsMCwwLDAsMC0xLjQ0NmwtMi4xNjUtMi4xNjZjLS4wMDUsMC0uMDEyLS4wMDYtLjAxNy0uMDExVjE2LjY2MmgyLjg0di45MDZBMS4zNDMsMS4zNDMsMCwwLDAsMjYuMzUxLDE4LjkxMVoiLz48L3N2Zz4=" vertex="1" parent="1">
          <mxGeometry x="270" y="440" width="48" height="48" as="geometry" />
        </mxCell>
        <mxCell id="0rtRrYD6AR9V3r3JzhEk-6" style="edgeStyle=orthogonalEdgeStyle;rounded=0;orthogonalLoop=1;jettySize=auto;html=1;" edge="1" parent="1" source="0rtRrYD6AR9V3r3JzhEk-3">
          <mxGeometry relative="1" as="geometry">
            <mxPoint x="650" y="320" as="targetPoint" />
          </mxGeometry>
        </mxCell>
        <mxCell id="0rtRrYD6AR9V3r3JzhEk-10" style="edgeStyle=orthogonalEdgeStyle;rounded=0;orthogonalLoop=1;jettySize=auto;html=1;entryX=-0.036;entryY=0.322;entryDx=0;entryDy=0;entryPerimeter=0;" edge="1" parent="1" source="0rtRrYD6AR9V3r3JzhEk-3" target="0rtRrYD6AR9V3r3JzhEk-5">
          <mxGeometry relative="1" as="geometry" />
        </mxCell>
        <mxCell id="0rtRrYD6AR9V3r3JzhEk-3" value="Connectivity" style="shape=image;verticalLabelPosition=bottom;verticalAlign=top;imageAspect=0;aspect=fixed;image=data:image/svg+xml,PHN2ZyB4bWxucz0iaHR0cDovL3d3dy53My5vcmcvMjAwMC9zdmciIGlkPSJzYXAtaGFuYS1jbG91ZC1jb25uZWN0b3IiIHZpZXdCb3g9IjMuOTk5Mjg0NTA1ODQ0MTE2IDMuOTk5OTk5NTIzMTYyODQyIDQ4LjAwMDcxNzE2MzA4NTk0IDQ4IiB3aWR0aD0iNDguMDAwNzE3MTYzMDg1OTQiIGhlaWdodD0iNDgiPjxkZWZzPjxzdHlsZT4uY2xzLTF7ZmlsbDojMGE2ZWQxO30uY2xzLTJ7ZmlsbDojMDUzYjcwO308L3N0eWxlPjwvZGVmcz48dGl0bGU+c2FwLWhhbmEtY2xvdWQtY29ubmVjdG9yPC90aXRsZT48cGF0aCBjbGFzcz0iY2xzLTEiIGQ9Ik00MS41LDQ5aC05YTEuNSwxLjUsMCwwLDAsMCwzaDlhMS41LDEuNSwwLDAsMCwwLTNaIi8+PHBhdGggY2xhc3M9ImNscy0xIiBkPSJNNDguOTkxLDI1SDI1LjAwOUEzLjAwOSwzLjAwOSwwLDAsMCwyMiwyOC4wMDlWNDIuOTkxQTMuMDA5LDMuMDA5LDAsMCwwLDI1LjAwOSw0Nkg0OC45OTFBMy4wMDksMy4wMDksMCwwLDAsNTIsNDIuOTkxVjI4LjAwOUEzLjAwOSwzLjAwOSwwLDAsMCw0OC45OTEsMjVabTAsMThMMjUsNDIuOTkxLDI1LjAwOSwyOEg0OC45OTFsLjAwOS4wMDlaIi8+PHBhdGggY2xhc3M9ImNscy0yIiBkPSJNMTkuMTA5LDdhNi40NTUsNi40NTUsMCwwLDEsNS44NjQsNC4wMzNsMS4zMDcsMy4yOUwyOS4zMSwxMi41YTMuOTIyLDMuOTIyLDAsMCwxLDIuMDQzLS41OTEsMy45ODgsMy45ODgsMCwwLDEsMy45MTQsMy4yNDlsLjI4OCwxLjUyOSwxLjQxNS42NDZhNS4zNTEsNS4zNTEsMCwwLDEsMyw0LjY3SDQzYTguMzU1LDguMzU1LDAsMCwwLTQuNzg1LTcuNEE2Ljk0MSw2Ljk0MSwwLDAsMCwyNy43NjIsOS45MjgsOS40NTIsOS40NTIsMCwwLDAsMTkuMDU1LDRDOC42NSw0LDkuOCwxNC42MjEsOS44LDE0LjYyMUE4LjM4Nyw4LjM4NywwLDAsMCwxMi40MSwzMC45ODZIMTl2LTNIMTIuNDFhNS4zODcsNS4zODcsMCwwLDEtMS42NzUtMTAuNTE1bDIuMzA4LS43NTlMMTIuNzgxLDE0LjNhOC4xLDguMSwwLDAsMSwxLjUtNS4yODRBNi41LDYuNSwwLDAsMSwxOS4xMDksN1oiLz48L3N2Zz4=" vertex="1" parent="1">
          <mxGeometry x="580" y="296" width="48" height="48" as="geometry" />
        </mxCell>
        <mxCell id="0rtRrYD6AR9V3r3JzhEk-5" value="S/4 System" style="rounded=0;whiteSpace=wrap;html=1;" vertex="1" parent="1">
          <mxGeometry x="700" y="280" width="120" height="126" as="geometry" />
        </mxCell>
        <mxCell id="0rtRrYD6AR9V3r3JzhEk-15" style="edgeStyle=orthogonalEdgeStyle;rounded=0;orthogonalLoop=1;jettySize=auto;html=1;entryX=0;entryY=0.5;entryDx=0;entryDy=0;" edge="1" parent="1" source="0rtRrYD6AR9V3r3JzhEk-8" target="0rtRrYD6AR9V3r3JzhEk-3">
          <mxGeometry relative="1" as="geometry" />
        </mxCell>
        <mxCell id="0rtRrYD6AR9V3r3JzhEk-20" style="edgeStyle=orthogonalEdgeStyle;rounded=0;orthogonalLoop=1;jettySize=auto;html=1;entryX=1;entryY=0.5;entryDx=0;entryDy=0;" edge="1" parent="1" source="0rtRrYD6AR9V3r3JzhEk-8" target="0rtRrYD6AR9V3r3JzhEk-1">
          <mxGeometry relative="1" as="geometry" />
        </mxCell>
        <mxCell id="0rtRrYD6AR9V3r3JzhEk-8" value="CAP Node jS" style="rounded=1;whiteSpace=wrap;html=1;" vertex="1" parent="1">
          <mxGeometry x="378" y="300" width="120" height="40" as="geometry" />
        </mxCell>
        <mxCell id="0rtRrYD6AR9V3r3JzhEk-14" style="edgeStyle=orthogonalEdgeStyle;rounded=0;orthogonalLoop=1;jettySize=auto;html=1;" edge="1" parent="1" source="0rtRrYD6AR9V3r3JzhEk-9" target="0rtRrYD6AR9V3r3JzhEk-8">
          <mxGeometry relative="1" as="geometry">
            <Array as="points">
              <mxPoint x="430" y="180" />
            </Array>
          </mxGeometry>
        </mxCell>
        <mxCell id="0rtRrYD6AR9V3r3JzhEk-9" value="Cloud Storage" style="shape=image;verticalLabelPosition=bottom;verticalAlign=top;imageAspect=0;aspect=fixed;image=data:image/svg+xml,PHN2ZyB4bWxucz0iaHR0cDovL3d3dy53My5vcmcvMjAwMC9zdmciIGlkPSJoYW5hIiB2aWV3Qm94PSIzLjk5OTI4NDUwNTg0NDExNiAzLjk5OTk5OTUyMzE2Mjg0MiA0OC4wMDA3MTcxNjMwODU5NCA0OC4wMTM2MDMyMTA0NDkyMiIgd2lkdGg9IjQ4LjAwMDcxNzE2MzA4NTk0IiBoZWlnaHQ9IjQ4LjAxMzYwMzIxMDQ0OTIyIj48ZGVmcz48c3R5bGU+LmNscy0xe2ZpbGw6IzBhNmVkMTt9LmNscy0ye2ZpbGw6IzA1M2I3MDt9PC9zdHlsZT48L2RlZnM+PHRpdGxlPmhhbmE8L3RpdGxlPjxwYXRoIGNsYXNzPSJjbHMtMSIgZD0iTTUxLDIyLjMzMmE3LjIzNiw3LjIzNiwwLDAsMC0yLjYxMy0xLjgyQTIyLjQwOCwyMi40MDgsMCwwLDAsMzkuNTY5LDE5YTIyLjQsMjIuNCwwLDAsMC04LjgxNywxLjUxMiw3LjIzNiw3LjIzNiwwLDAsMC0yLjYxMywxLjgyLDMuNzcyLDMuNzcyLDAsMCwwLTEsMi41MjFWNDYuMDgxYTMuNjMyLDMuNjMyLDAsMCwwLDEsMi41MTQsNy4xMDcsNy4xMDcsMCwwLDAsMi42MDcsMS44MjFBMjEuMTU0LDIxLjE1NCwwLDAsMCwzOS41NjksNTJhMjIuNDA4LDIyLjQwOCwwLDAsMCw4LjgxOC0xLjUxMkE3LjIzNiw3LjIzNiwwLDAsMCw1MSw0OC42NjhhMy45MjcsMy45MjcsMCwwLDAsMS0yLjUyMVYyNC44NTNBMy43NzIsMy43NzIsMCwwLDAsNTEsMjIuMzMyWk00Mi4zNjUsNDkuMTc0Yy0uODkzLjA4NS0xLjgxOC4xNDQtMi44LjE0NGEyOC41MzgsMjguNTM4LDAsMCwxLTMuNDA2LS4yMTFWMzAuNTcyYTMzLjI2LDMzLjI2LDAsMCwwLDMuNDA2LjE2NWMuOTc5LDAsMS45LS4wNSwyLjgtLjEyNlptNy4xNjctMy4wMjdjMCwuNy0uOTE2LDEuNDYtMi40NTQsMi4wMzVhMTQuMjgsMTQuMjgsMCwwLDEtMi4yMjkuNjIyVjMwLjI2N2ExMy42MjgsMTMuNjI4LDAsMCwwLDQuNjgzLTEuNjQzWk00Ny4wNzgsMjYuOTg1YTIxLjU3LDIxLjU3LDAsMCwxLTcuNTA5LDEuMTM2LDIxLjUwOCwyMS41MDgsMCwwLDEtNy41LTEuMTM2Yy0xLjUyNC0uNjUtMi40LTEuNDE2LTIuNC0yLjF2LS4wMzFjMC0xLjMsMy41MjYtMy4xNzEsOS45LTMuMTcxLDYuNDE3LDAsOS45NjMsMS44NzYsOS45NjMsMy4yMDVDNDkuNTMyLDI1LjU3OCw0OC42MzYsMjYuMzQ0LDQ3LjA3OCwyNi45ODVaIi8+PHBhdGggY2xhc3M9ImNscy0yIiBkPSJNMjQuMywyNy45ODZIMTIuNDFhNS4zODcsNS4zODcsMCwwLDEtMS42NzUtMTAuNTE1bDIuMzA4LS43NTlMMTIuNzgxLDE0LjNhOC4xLDguMSwwLDAsMSwxLjUtNS4yODRBNi41LDYuNSwwLDAsMSwxOS4xMDksN2E2LjA1NCw2LjA1NCwwLDAsMSw1Ljg2NCw0LjAzM2wxLjMwNywzLjI5TDI5LjMxLDEyLjVhMy45MjIsMy45MjIsMCwwLDEsMi4wNDMtLjU5MSwzLjk4OCwzLjk4OCwwLDAsMSwzLjkxNCwzLjI0OWwuMTU5Ljg0NWgzYy0uMDQ3LS40MzktLjEwOC0uOS0uMjEtMS40QTYuOTQxLDYuOTQxLDAsMCwwLDI3Ljc2Miw5LjkyOCw5LjQ1Miw5LjQ1MiwwLDAsMCwxOS4wNTUsNEM4Ljg2Myw0LjI0Miw5LjgsMTQuNjIxLDkuOCwxNC42MjFBOC4zODcsOC4zODcsMCwwLDAsMTIuNDEsMzAuOTg2SDI0LjNaIi8+PC9zdmc+" vertex="1" parent="1">
          <mxGeometry x="330" y="150" width="48" height="48" as="geometry" />
        </mxCell>
        <mxCell id="0rtRrYD6AR9V3r3JzhEk-17" style="edgeStyle=orthogonalEdgeStyle;rounded=0;orthogonalLoop=1;jettySize=auto;html=1;entryX=0.75;entryY=0;entryDx=0;entryDy=0;" edge="1" parent="1" target="0rtRrYD6AR9V3r3JzhEk-8">
          <mxGeometry relative="1" as="geometry">
            <mxPoint x="494" y="195" as="sourcePoint" />
          </mxGeometry>
        </mxCell>
        <mxCell id="0rtRrYD6AR9V3r3JzhEk-22" value="UI5 Form" style="shape=image;verticalLabelPosition=bottom;verticalAlign=top;imageAspect=0;aspect=fixed;image=data:image/svg+xml,PHN2ZyB4bWxucz0iaHR0cDovL3d3dy53My5vcmcvMjAwMC9zdmciIGlkPSJwb3J0YWwiIHZpZXdCb3g9IjQuMDAxNTE2MzQyMTYzMDg2IDEwLjk4OTExOTUyOTcyNDEyMSA0Ny45OTk0MTI1MzY2MjEwOTQgMzMuMDEwOTEzODQ4ODc2OTUiIHdpZHRoPSI0Ny45OTk0MTI1MzY2MjEwOTQiIGhlaWdodD0iMzMuMDEwOTEzODQ4ODc2OTUiPjxkZWZzPjxzdHlsZT4uY2xzLTF7ZmlsbDojMDUzYjcwO30uY2xzLTJ7ZmlsbDojMGE2ZWQxO308L3N0eWxlPjwvZGVmcz48dGl0bGU+cG9ydGFsPC90aXRsZT48cGF0aCBjbGFzcz0iY2xzLTEiIGQ9Ik00NS44NCwyMy45NjJhOC40ODksOC40ODksMCwwLDAtMTIuNzgzLTUuNzEzQTEwLjc0NywxMC43NDcsMCwwLDAsMjIuNDEsMTFDMTAsMTEsMTEuMDksMjMuOTg4LDExLjA5LDIzLjk4OEExMC4yNTcsMTAuMjU3LDAsMCwwLDE0LjI4NSw0NEgyMlYyOWg5VjQ0SDQxLjVhMTAuNDg2LDEwLjQ4NiwwLDAsMCw0LjM0LTIwLjAzOFpNNDEuNSw0MUgzNFYyNkgxOVY0MUgxNC4yODVhNy4yNTcsNy4yNTcsMCwwLDEtMi4yNTgtMTQuMTYybDIuMjc5LS43NjgtLjIzMi0yLjM4OWMwLS4wNDItLjM3OS00LjIzNywyLjAxLTcuMDEzQzE3LjQ2MSwxNS4wNjgsMTksMTQsMjIuNDY1LDE0YzIuNTM1LDAsNi40MTcsMi4xODYsNy45OTQsNS4zMzlsMS4xNzYsMi44NzEsMi40MjQtMS4zMThBNy42LDcuNiwwLDAsMSwzNy40NDksMjBhNS41NDYsNS41NDYsMCwwLDEsNS40NDMsNC41MThsLjI4OCwxLjUyOCwxLjQxNS42NDZBNy40ODYsNy40ODYsMCwwLDEsNDEuNSw0MVoiLz48cG9seWdvbiBjbGFzcz0iY2xzLTIiIHBvaW50cz0iMTkuMDA2IDQ0IDIyLjAwNiA0NCAyMi4wMDYgMjkgMzEuMDA2IDI5IDMxLjAwNiA0NCAzNC4wMDYgNDQgMzQuMDA2IDI2IDE5LjAwNiAyNiAxOS4wMDYgNDQiLz48L3N2Zz4=" vertex="1" parent="1">
          <mxGeometry x="470" y="150" width="48" height="33" as="geometry" />
        </mxCell>
        <mxCell id="0rtRrYD6AR9V3r3JzhEk-23" value="WorkFlow" style="shape=image;verticalLabelPosition=bottom;verticalAlign=top;imageAspect=0;aspect=fixed;image=data:image/svg+xml,PHN2ZyB4bWxucz0iaHR0cDovL3d3dy53My5vcmcvMjAwMC9zdmciIGlkPSJ3b3JrZmxvdy1zZXJ2aWNlIiB2aWV3Qm94PSI0IDQgNDggNDgiIHdpZHRoPSI0OCIgaGVpZ2h0PSI0OCI+PGRlZnM+PHN0eWxlPi5jbHMtMXtmaWxsOiMwYTZlZDE7fS5jbHMtMntmaWxsOiMwNTNiNzA7fTwvc3R5bGU+PC9kZWZzPjx0aXRsZT53b3JrZmxvdy1zZXJ2aWNlPC90aXRsZT48cmVjdCBjbGFzcz0iY2xzLTEiIHg9IjM0IiB5PSI0IiB3aWR0aD0iMTgiIGhlaWdodD0iMTIiIHJ4PSIyLjY4NyIvPjxyZWN0IGNsYXNzPSJjbHMtMSIgeD0iMzQiIHk9IjQwIiB3aWR0aD0iMTgiIGhlaWdodD0iMTIiIHJ4PSIyLjY4NyIvPjxyZWN0IGNsYXNzPSJjbHMtMSIgeD0iNCIgeT0iMjIiIHdpZHRoPSIxOCIgaGVpZ2h0PSIxMiIgcng9IjIuNjg3Ii8+PHBhdGggY2xhc3M9ImNscy0yIiBkPSJNMzAuOTMyLDMyLjczMUExLjIyMSwxLjIyMSwwLDAsMCwzMS4xLDMyLjZsMy4xNzgtMy4xNzlhMiwyLDAsMCwwLDAtMi44MzFMMzEuMSwyMy40YTEuMjU5LDEuMjU5LDAsMCwwLS4xNjMtLjEzNFYxMkgzNHYtMi41TDI4LjQzMiw5LjVWMjMuMjY3YTEuMiwxLjIsMCwwLDAtLjE2Ny4xMzhsLTMuMTc5LDMuMTc5YTEuMTcxLDEuMTcxLDAsMCwwLS4xMzcuMTY2SDIydjIuNWgyLjk1YTEuMSwxLjEsMCwwLDAsLjEzNi4xNjRMMjguMjY3LDMyLjZhMS4yMTksMS4yMTksMCwwLDAsLjE2NS4xMzVWNDYuNjI1SDM0di0yLjVsLTMuMDY4LDBaIi8+PC9zdmc+" vertex="1" parent="1">
          <mxGeometry x="170" y="441" width="48" height="48" as="geometry" />
        </mxCell>
      </root>
    </mxGraphModel>
  </diagram>
</mxfile>
